<svg width="185" height="166" viewBox="0 0 185 166" fill="none" xmlns="http://www.w3.org/2000/svg">
<g clip-path="url(#clip0_7789_16025)">
<path d="M94.7445 0.361968L88.7249 1.91395L14.5626 21.0348L8.54299 22.5867C5.62116 23.3436 3.11891 25.2282 1.58522 27.8273C0.0515256 30.4263 -0.388366 33.5274 0.362053 36.4503L26.4643 137.647C27.2212 140.568 29.1063 143.07 31.7059 144.603C34.3055 146.136 37.4073 146.576 40.3309 145.826L40.3464 145.822L126.517 123.605L126.532 123.601C129.454 122.844 131.956 120.96 133.49 118.36C135.024 115.761 135.464 112.66 134.713 109.737L108.611 8.54117C107.854 5.61997 105.969 3.11826 103.369 1.58489C100.77 0.0515239 97.668 -0.388281 94.7445 0.361968Z" fill="#F2F2F2"/>
<path d="M95.5629 3.5347L88.4331 5.37292L16.4909 23.9213L9.36126 25.7595C7.28055 26.2984 5.49863 27.6406 4.40644 29.4914C3.31426 31.3422 3.001 33.5506 3.53539 35.6321L29.6376 136.828C30.1767 138.909 31.5191 140.69 33.3703 141.782C35.2215 142.874 37.4304 143.187 39.5123 142.653L39.5279 142.649L125.698 120.432L125.714 120.428C127.795 119.889 129.576 118.547 130.669 116.696C131.761 114.845 132.074 112.637 131.54 110.556L105.437 9.3593C104.898 7.27907 103.556 5.49756 101.705 4.40561C99.8536 3.31366 97.6448 3.00045 95.5629 3.5347Z" fill="white"/>
<path d="M90.1792 36.3047L46.5877 47.5436C46.1009 47.6691 45.584 47.5961 45.151 47.3407C44.7179 47.0853 44.4041 46.6683 44.2786 46.1815C44.153 45.6948 44.226 45.1781 44.4815 44.7451C44.737 44.3122 45.154 43.9984 45.6409 43.8729L89.2324 32.634C89.7191 32.5089 90.2356 32.5822 90.6683 32.8377C91.1009 33.0932 91.4145 33.51 91.54 33.9964C91.6654 34.4829 91.5926 34.9993 91.3375 35.4321C91.0823 35.865 90.6657 36.1788 90.1792 36.3047Z" fill="#F2F2F2"/>
<path d="M99.3497 40.5467L48.1856 53.738C47.6988 53.8635 47.1819 53.7905 46.7489 53.5351C46.3158 53.2796 46.002 52.8627 45.8765 52.3759C45.7509 51.8891 45.8239 51.3724 46.0794 50.9395C46.3349 50.5065 46.7519 50.1928 47.2388 50.0673L98.4028 36.876C98.8897 36.7504 99.4065 36.8234 99.8396 37.0789C100.273 37.3343 100.586 37.7513 100.712 38.238C100.838 38.7248 100.765 39.2415 100.509 39.6744C100.254 40.1074 99.8365 40.4211 99.3497 40.5467Z" fill="#F2F2F2"/>
<path d="M97.3396 64.0644L53.7481 75.3033C53.5071 75.3654 53.2561 75.3795 53.0096 75.3447C52.7631 75.3099 52.5258 75.2269 52.3114 75.1004C52.097 74.9739 51.9096 74.8065 51.7599 74.6076C51.6102 74.4087 51.5011 74.1823 51.439 73.9412C51.3768 73.7002 51.3627 73.4493 51.3975 73.2029C51.4324 72.9564 51.5154 72.7192 51.6419 72.5048C51.7684 72.2904 51.9359 72.1031 52.1348 71.9534C52.3338 71.8038 52.5602 71.6947 52.8013 71.6326L96.3928 60.3937C96.6339 60.3315 96.8849 60.3174 97.1314 60.3522C97.3779 60.3871 97.6151 60.4701 97.8296 60.5966C98.044 60.723 98.2314 60.8905 98.3811 61.0894C98.5308 61.2883 98.6398 61.5147 98.702 61.7557C98.7642 61.9967 98.7782 62.2476 98.7434 62.4941C98.7086 62.7406 98.6256 62.9778 98.4991 63.1921C98.3726 63.4065 98.2051 63.5939 98.0061 63.7435C97.8072 63.8932 97.5807 64.0022 97.3396 64.0644Z" fill="#F2F2F2"/>
<path d="M106.51 68.3064L55.3458 81.4977C55.1047 81.5599 54.8537 81.574 54.6072 81.5391C54.3607 81.5043 54.1235 81.4213 53.909 81.2948C53.6946 81.1684 53.5072 81.0009 53.3575 80.802C53.2078 80.6031 53.0988 80.3767 53.0366 80.1357C52.9745 79.8947 52.9604 79.6438 52.9952 79.3973C53.03 79.1508 53.113 78.9136 53.2396 78.6993C53.3661 78.4849 53.5336 78.2975 53.7325 78.1479C53.9314 77.9982 54.1579 77.8892 54.399 77.827L105.563 64.6357C106.05 64.5102 106.567 64.5832 107 64.8386C107.433 65.0941 107.747 65.511 107.872 65.9978C107.998 66.4846 107.925 67.0013 107.669 67.4342C107.414 67.8672 106.997 68.1809 106.51 68.3064Z" fill="#F2F2F2"/>
<path d="M104.5 91.8241L60.9082 103.063C60.4215 103.188 59.905 103.115 59.4722 102.86C59.0394 102.604 58.7258 102.187 58.6003 101.701C58.4748 101.214 58.5477 100.698 58.8029 100.265C59.0582 99.832 59.4749 99.5182 59.9614 99.3924L103.553 88.1534C104.04 88.0279 104.557 88.1009 104.99 88.3563C105.423 88.6118 105.737 89.0287 105.862 89.5155C105.988 90.0022 105.915 90.5189 105.659 90.9519C105.404 91.3849 104.987 91.6986 104.5 91.8241Z" fill="#F2F2F2"/>
<path d="M113.67 96.0661L62.5061 109.257C62.2649 109.32 62.0139 109.334 61.7672 109.299C61.5205 109.265 61.2831 109.182 61.0685 109.055C60.8539 108.929 60.6663 108.761 60.5165 108.562C60.3667 108.363 60.2575 108.137 60.1953 107.896C60.1331 107.655 60.119 107.404 60.1539 107.157C60.1888 106.91 60.272 106.673 60.3987 106.459C60.5253 106.244 60.693 106.057 60.8922 105.907C61.0913 105.758 61.318 105.649 61.5593 105.587L112.723 92.3954C113.21 92.2698 113.727 92.3428 114.16 92.5983C114.593 92.8537 114.907 93.2707 115.032 93.7574C115.158 94.2442 115.085 94.7609 114.83 95.1939C114.574 95.6268 114.157 95.9406 113.67 96.0661Z" fill="#F2F2F2"/>
<path d="M39.1461 59.0675L23.7195 63.0448C23.486 63.1047 23.2383 63.0696 23.0308 62.9472C22.8232 62.8247 22.6727 62.625 22.6122 62.3917L19.0711 48.6629C19.0111 48.4295 19.0463 48.1818 19.1687 47.9743C19.2912 47.7668 19.491 47.6163 19.7243 47.5559L35.1509 43.5785C35.3844 43.5186 35.6321 43.5537 35.8396 43.6761C36.0472 43.7986 36.1977 43.9983 36.2582 44.2316L39.7993 57.9604C39.8593 58.1938 39.8242 58.4415 39.7017 58.649C39.5792 58.8565 39.3794 59.007 39.1461 59.0675Z" fill="#E6E6E6"/>
<path d="M46.3063 86.8272L30.8796 90.8046C30.6462 90.8645 30.3985 90.8294 30.1909 90.7069C29.9833 90.5845 29.8328 90.3847 29.7724 90.1514L26.2312 76.4226C26.1713 76.1892 26.2064 75.9416 26.3289 75.7341C26.4514 75.5265 26.6512 75.3761 26.8845 75.3156L42.3111 71.3383C42.5445 71.2784 42.7922 71.3135 42.9998 71.4359C43.2074 71.5583 43.3579 71.7581 43.4183 71.9914L46.9595 85.7202C47.0194 85.9536 46.9843 86.2012 46.8618 86.4088C46.7394 86.6163 46.5396 86.7668 46.3063 86.8272Z" fill="#E6E6E6"/>
<path d="M53.4667 114.587L38.04 118.564C37.8066 118.624 37.5589 118.589 37.3513 118.467C37.1437 118.344 36.9932 118.144 36.9328 117.911L33.3916 104.182C33.3317 103.949 33.3668 103.701 33.4893 103.494C33.6117 103.286 33.8116 103.136 34.0449 103.075L49.4715 99.098C49.7049 99.0381 49.9526 99.0732 50.1602 99.1957C50.3678 99.3181 50.5183 99.5179 50.5787 99.7511L54.1199 113.48C54.1798 113.713 54.1447 113.961 54.0222 114.169C53.8998 114.376 53.7 114.527 53.4667 114.587Z" fill="#E6E6E6"/>
<path d="M154.866 26.0139H65.8441C62.8258 26.0173 59.9321 27.2176 57.7979 29.3514C55.6636 31.4852 54.4631 34.3782 54.4597 37.3959V141.903C54.4631 144.921 55.6636 147.814 57.7979 149.947C59.9321 152.081 62.8258 153.281 65.8441 153.285H154.866C157.884 153.281 160.778 152.081 162.912 149.947C165.046 147.814 166.247 144.921 166.25 141.903V37.3959C166.247 34.3782 165.046 31.4852 162.912 29.3514C160.778 27.2176 157.884 26.0173 154.866 26.0139Z" fill="#E6E6E6"/>
<path d="M154.866 29.2905H65.8439C63.6945 29.2929 61.6339 30.1477 60.114 31.6672C58.5941 33.1867 57.7392 35.2469 57.7368 37.3959V141.903C57.7392 144.052 58.5941 146.112 60.114 147.632C61.6339 149.151 63.6945 150.006 65.8439 150.008H154.866C157.015 150.006 159.076 149.151 160.596 147.632C162.115 146.112 162.97 144.052 162.973 141.903V37.3959C162.97 35.247 162.115 33.1867 160.596 31.6672C159.076 30.1477 157.015 29.293 154.866 29.2905Z" fill="white"/>
<path d="M164.218 166C175.696 166 185 156.698 185 145.223C185 133.748 175.696 124.445 164.218 124.445C152.741 124.445 143.436 133.748 143.436 145.223C143.436 156.698 152.741 166 164.218 166Z" fill="#F64072"/>
<path d="M174.157 142.513H166.929V135.286C166.929 134.567 166.643 133.878 166.135 133.369C165.627 132.861 164.937 132.576 164.218 132.576C163.499 132.576 162.81 132.861 162.301 133.369C161.793 133.878 161.508 134.567 161.508 135.286V142.513H154.279C153.56 142.513 152.871 142.798 152.362 143.306C151.854 143.815 151.568 144.504 151.568 145.223C151.568 145.941 151.854 146.631 152.362 147.139C152.871 147.647 153.56 147.933 154.279 147.933H161.508V155.16C161.508 155.878 161.793 156.568 162.301 157.076C162.81 157.584 163.499 157.87 164.218 157.87C164.937 157.87 165.627 157.584 166.135 157.076C166.643 156.568 166.929 155.878 166.929 155.16V147.933H174.157C174.876 147.933 175.566 147.647 176.074 147.139C176.582 146.631 176.868 145.941 176.868 145.223C176.868 144.504 176.582 143.815 176.074 143.306C175.566 142.798 174.876 142.513 174.157 142.513Z" fill="white"/>
<path d="M141.468 86.7168H96.4502C96.201 86.7171 95.9543 86.6683 95.724 86.5732C95.4938 86.478 95.2845 86.3385 95.1083 86.1624C94.932 85.9864 94.7922 85.7773 94.6968 85.5472C94.6014 85.3172 94.5522 85.0705 94.5522 84.8214C94.5522 84.5723 94.6014 84.3257 94.6968 84.0956C94.7922 83.8655 94.932 83.6565 95.1083 83.4804C95.2845 83.3044 95.4938 83.1648 95.724 83.0697C95.9543 82.9746 96.201 82.9257 96.4502 82.926H141.468C141.97 82.9266 142.452 83.1265 142.807 83.4819C143.162 83.8373 143.362 84.3191 143.362 84.8214C143.362 85.3237 143.162 85.8055 142.807 86.1609C142.452 86.5163 141.97 86.7163 141.468 86.7168Z" fill="#E6E6E6"/>
<path d="M149.288 93.1138H96.4502C96.201 93.1141 95.9543 93.0653 95.724 92.9701C95.4938 92.875 95.2845 92.7354 95.1083 92.5594C94.932 92.3834 94.7922 92.1743 94.6968 91.9442C94.6014 91.7141 94.5522 91.4675 94.5522 91.2184C94.5522 90.9693 94.6014 90.7227 94.6968 90.4926C94.7922 90.2625 94.932 90.0534 95.1083 89.8774C95.2845 89.7014 95.4938 89.5618 95.724 89.4667C95.9543 89.3715 96.201 89.3227 96.4502 89.323H149.288C149.791 89.323 150.273 89.5227 150.629 89.8781C150.984 90.2336 151.184 90.7157 151.184 91.2184C151.184 91.7211 150.984 92.2032 150.629 92.5586C150.273 92.9141 149.791 93.1138 149.288 93.1138Z" fill="#E6E6E6"/>
<path d="M141.468 115.385H96.4502C96.201 115.385 95.9543 115.336 95.724 115.241C95.4938 115.146 95.2845 115.006 95.1083 114.83C94.932 114.654 94.7922 114.445 94.6968 114.215C94.6014 113.985 94.5522 113.738 94.5522 113.489C94.5522 113.24 94.6014 112.994 94.6968 112.764C94.7922 112.533 94.932 112.324 95.1083 112.148C95.2845 111.972 95.4938 111.833 95.724 111.738C95.9543 111.643 96.201 111.594 96.4502 111.594H141.468C141.971 111.594 142.453 111.794 142.808 112.149C143.164 112.505 143.364 112.987 143.364 113.489C143.364 113.992 143.164 114.474 142.808 114.83C142.453 115.185 141.971 115.385 141.468 115.385Z" fill="#E6E6E6"/>
<path d="M149.288 121.782H96.4502C96.201 121.782 95.9543 121.733 95.724 121.638C95.4938 121.543 95.2845 121.403 95.1083 121.227C94.932 121.051 94.7922 120.842 94.6968 120.612C94.6014 120.382 94.5522 120.135 94.5522 119.886C94.5522 119.637 94.6014 119.391 94.6968 119.161C94.7922 118.93 94.932 118.721 95.1083 118.545C95.2845 118.369 95.4938 118.23 95.724 118.135C95.9543 118.04 96.201 117.991 96.4502 117.991H149.288C149.537 117.991 149.784 118.04 150.014 118.135C150.244 118.23 150.454 118.369 150.63 118.545C150.806 118.721 150.946 118.93 151.042 119.161C151.137 119.391 151.186 119.637 151.186 119.886C151.186 120.135 151.137 120.382 151.042 120.612C150.946 120.842 150.806 121.051 150.63 121.227C150.454 121.403 150.244 121.543 150.014 121.638C149.784 121.733 149.537 121.782 149.288 121.782Z" fill="#E6E6E6"/>
<path d="M86.366 96.0178H70.4347C70.1937 96.0175 69.9626 95.9217 69.7922 95.7513C69.6218 95.5809 69.5259 95.3499 69.5256 95.1089V80.9309C69.5259 80.69 69.6218 80.459 69.7922 80.2886C69.9626 80.1182 70.1937 80.0224 70.4347 80.0221H86.366C86.607 80.0224 86.8381 80.1182 87.0085 80.2886C87.1789 80.459 87.2748 80.69 87.2751 80.9309V95.1089C87.2748 95.3499 87.1789 95.5809 87.0085 95.7513C86.8381 95.9217 86.607 96.0175 86.366 96.0178Z" fill="#E6E6E6"/>
<path d="M86.366 124.686H70.4347C70.1937 124.685 69.9626 124.59 69.7922 124.419C69.6218 124.249 69.5259 124.018 69.5256 123.777V109.599C69.5259 109.358 69.6218 109.127 69.7922 108.956C69.9626 108.786 70.1937 108.69 70.4347 108.69H86.366C86.607 108.69 86.8381 108.786 87.0085 108.956C87.1789 109.127 87.2748 109.358 87.2751 109.599V123.777C87.2748 124.018 87.1789 124.249 87.0085 124.419C86.8381 124.59 86.607 124.685 86.366 124.686Z" fill="#E6E6E6"/>
<path d="M141.518 54.8037H108.328C107.825 54.8037 107.343 54.604 106.988 54.2486C106.632 53.8931 106.432 53.411 106.432 52.9083C106.432 52.4056 106.632 51.9235 106.988 51.5681C107.343 51.2126 107.825 51.0129 108.328 51.0129H141.518C142.021 51.0129 142.503 51.2126 142.858 51.5681C143.214 51.9235 143.414 52.4056 143.414 52.9083C143.414 53.411 143.214 53.8931 142.858 54.2486C142.503 54.604 142.021 54.8037 141.518 54.8037Z" fill="#CCCCCC"/>
<path d="M149.338 61.2007H108.328C108.079 61.2007 107.833 61.1517 107.603 61.0564C107.373 60.9612 107.164 60.8216 106.988 60.6456C106.812 60.4696 106.672 60.2606 106.577 60.0306C106.481 59.8007 106.432 59.5542 106.432 59.3053C106.432 59.0564 106.481 58.8099 106.577 58.58C106.672 58.35 106.812 58.1411 106.988 57.9651C107.164 57.7891 107.373 57.6494 107.603 57.5542C107.833 57.4589 108.079 57.4099 108.328 57.4099H149.338C149.841 57.4099 150.323 57.6096 150.679 57.9651C151.034 58.3205 151.234 58.8026 151.234 59.3053C151.234 59.808 151.034 60.2901 150.679 60.6456C150.323 61.001 149.841 61.2007 149.338 61.2007Z" fill="#CCCCCC"/>
<path d="M100.983 68.9531H70.3849C70.1439 68.9528 69.9128 68.857 69.7424 68.6866C69.572 68.5162 69.4761 68.2852 69.4758 68.0443V44.1695C69.4761 43.9285 69.572 43.6975 69.7424 43.5271C69.9128 43.3567 70.1439 43.2609 70.3849 43.2606H100.983C101.224 43.2609 101.455 43.3567 101.625 43.5271C101.796 43.6975 101.892 43.9285 101.892 44.1695V68.0443C101.892 68.2852 101.796 68.5162 101.625 68.6866C101.455 68.857 101.224 68.9528 100.983 68.9531Z" fill="#F64072"/>
</g>
<defs>
<clipPath id="clip0_7789_16025">
<rect width="185" height="166" fill="white"/>
</clipPath>
</defs>
</svg>
